<?xml version="1.0" encoding="UTF-8" standalone="no"?>
<!DOCTYPE svg PUBLIC "-//W3C//DTD SVG 1.1//EN"
 "http://www.w3.org/Graphics/SVG/1.1/DTD/svg11.dtd">
<!-- Generated by graphviz version 12.2.0 (0)
 -->
<!-- Pages: 1 -->
<svg width="570pt" height="332pt"
 viewBox="0.00 0.00 570.14 332.00" xmlns="http://www.w3.org/2000/svg" xmlns:xlink="http://www.w3.org/1999/xlink">
<g id="graph0" class="graph" transform="scale(1 1) rotate(0) translate(4 328)">
<!-- Provision -->
<g id="node1" class="node">
<title>Provision</title>
<ellipse fill="lightblue" stroke="lightblue" cx="416.57" cy="-306" rx="58.05" ry="18"/>
<text text-anchor="middle" x="416.57" y="-301.32" font-family="Times,serif" font-size="14.00">Provision</text>
</g>
<!-- Exist -->
<g id="node2" class="node">
<title>Exist</title>
<ellipse fill="lightgrey" stroke="black" cx="359.57" cy="-234" rx="37" ry="18"/>
<text text-anchor="middle" x="359.57" y="-229.32" font-family="Times,serif" font-size="14.00">Exist</text>
</g>
<!-- Provision&#45;&gt;Exist -->
<g id="edge1" class="edge">
<title>Provision&#45;&gt;Exist</title>
<path fill="none" stroke="black" d="M402.77,-288.05C395.85,-279.56 387.34,-269.11 379.71,-259.73"/>
<polygon fill="black" stroke="black" points="382.44,-257.55 373.42,-252 377.02,-261.97 382.44,-257.55"/>
</g>
<!-- Not Exist -->
<g id="node3" class="node">
<title>Not Exist</title>
<ellipse fill="lightgrey" stroke="black" cx="503.57" cy="-234" rx="58.57" ry="18"/>
<text text-anchor="middle" x="503.57" y="-229.32" font-family="Times,serif" font-size="14.00">Not Exist</text>
</g>
<!-- Provision&#45;&gt;Not Exist -->
<g id="edge2" class="edge">
<title>Provision&#45;&gt;Not Exist</title>
<path fill="none" stroke="black" d="M436.75,-288.76C448.06,-279.66 462.35,-268.16 474.82,-258.13"/>
<polygon fill="black" stroke="black" points="476.72,-261.09 482.32,-252.1 472.34,-255.64 476.72,-261.09"/>
</g>
<!-- =Old -->
<g id="node5" class="node">
<title>=Old</title>
<ellipse fill="lightgrey" stroke="black" cx="469.57" cy="-90" rx="37" ry="18"/>
<text text-anchor="middle" x="469.57" y="-85.33" font-family="Times,serif" font-size="14.00">=Old</text>
</g>
<!-- Exist&#45;&gt;=Old -->
<g id="edge4" class="edge">
<title>Exist&#45;&gt;=Old</title>
<path fill="none" stroke="black" d="M390.89,-224.14C412.86,-216.23 441.01,-202.37 456.57,-180 468.71,-162.55 471.62,-138.48 471.67,-119.77"/>
<polygon fill="black" stroke="black" points="475.18,-119.79 471.41,-109.89 468.18,-119.98 475.18,-119.79"/>
</g>
<!-- =New -->
<g id="node6" class="node">
<title>=New</title>
<ellipse fill="lightgrey" stroke="black" cx="68.57" cy="-162" rx="42.26" ry="18"/>
<text text-anchor="middle" x="68.57" y="-157.32" font-family="Times,serif" font-size="14.00">=New</text>
</g>
<!-- Exist&#45;&gt;=New -->
<g id="edge5" class="edge">
<title>Exist&#45;&gt;=New</title>
<path fill="none" stroke="black" d="M325.51,-226.64C278.74,-217.65 192.16,-200.06 119.57,-180 116.85,-179.25 114.07,-178.44 111.27,-177.6"/>
<polygon fill="black" stroke="black" points="112.55,-174.33 101.96,-174.67 110.45,-181.01 112.55,-174.33"/>
</g>
<!-- Not in Old -->
<g id="node7" class="node">
<title>Not in Old</title>
<ellipse fill="lightgrey" stroke="black" cx="191.57" cy="-162" rx="62.78" ry="18"/>
<text text-anchor="middle" x="191.57" y="-157.32" font-family="Times,serif" font-size="14.00">Not in Old</text>
</g>
<!-- Exist&#45;&gt;Not in Old -->
<g id="edge6" class="edge">
<title>Exist&#45;&gt;Not in Old</title>
<path fill="none" stroke="black" d="M332.2,-221.6C306.34,-210.82 267.06,-194.45 236.58,-181.76"/>
<polygon fill="black" stroke="black" points="238.18,-178.63 227.6,-178.01 235.49,-185.09 238.18,-178.63"/>
</g>
<!-- Not new or Old -->
<g id="node8" class="node">
<title>Not new or Old</title>
<ellipse fill="lightgrey" stroke="black" cx="359.57" cy="-162" rx="87.51" ry="18"/>
<text text-anchor="middle" x="359.57" y="-157.32" font-family="Times,serif" font-size="14.00">Not new or Old</text>
</g>
<!-- Exist&#45;&gt;Not new or Old -->
<g id="edge7" class="edge">
<title>Exist&#45;&gt;Not new or Old</title>
<path fill="none" stroke="black" d="M359.57,-215.7C359.57,-208.41 359.57,-199.73 359.57,-191.54"/>
<polygon fill="black" stroke="black" points="363.07,-191.62 359.57,-181.62 356.07,-191.62 363.07,-191.62"/>
</g>
<!-- Copy New -->
<g id="node4" class="node">
<title>Copy New</title>
<ellipse fill="green" stroke="green" cx="469.57" cy="-18" rx="62.26" ry="18"/>
<text text-anchor="middle" x="469.57" y="-13.32" font-family="Times,serif" font-size="14.00">Copy New</text>
</g>
<!-- Not Exist&#45;&gt;Copy New -->
<g id="edge3" class="edge">
<title>Not Exist&#45;&gt;Copy New</title>
<path fill="none" stroke="black" d="M509.41,-215.89C518.73,-185.73 534.1,-121.63 515.57,-72 511.69,-61.61 504.75,-51.9 497.42,-43.71"/>
<polygon fill="black" stroke="black" points="499.95,-41.3 490.48,-36.54 494.92,-46.16 499.95,-41.3"/>
</g>
<!-- =Old&#45;&gt;Copy New -->
<g id="edge8" class="edge">
<title>=Old&#45;&gt;Copy New</title>
<path fill="none" stroke="black" d="M469.57,-71.7C469.57,-64.41 469.57,-55.73 469.57,-47.54"/>
<polygon fill="black" stroke="black" points="473.07,-47.62 469.57,-37.62 466.07,-47.62 473.07,-47.62"/>
</g>
<!-- Do Nothing -->
<g id="node9" class="node">
<title>Do Nothing</title>
<ellipse fill="green" stroke="green" cx="68.57" cy="-90" rx="68.57" ry="18"/>
<text text-anchor="middle" x="68.57" y="-85.33" font-family="Times,serif" font-size="14.00">Do Nothing</text>
</g>
<!-- =New&#45;&gt;Do Nothing -->
<g id="edge9" class="edge">
<title>=New&#45;&gt;Do Nothing</title>
<path fill="none" stroke="black" d="M68.57,-143.7C68.57,-136.41 68.57,-127.73 68.57,-119.54"/>
<polygon fill="black" stroke="black" points="72.07,-119.62 68.57,-109.62 65.07,-119.62 72.07,-119.62"/>
</g>
<!-- Log Warning -->
<g id="node10" class="node">
<title>Log Warning</title>
<ellipse fill="orange" stroke="orange" cx="224.57" cy="-18" rx="74.88" ry="18"/>
<text text-anchor="middle" x="224.57" y="-13.32" font-family="Times,serif" font-size="14.00">Log Warning</text>
</g>
<!-- Not in Old&#45;&gt;Log Warning -->
<g id="edge10" class="edge">
<title>Not in Old&#45;&gt;Log Warning</title>
<path fill="none" stroke="black" d="M195.04,-143.55C198.67,-125.57 204.66,-96.74 210.57,-72 212.5,-63.91 214.74,-55.18 216.86,-47.17"/>
<polygon fill="black" stroke="black" points="220.22,-48.16 219.43,-37.6 213.46,-46.35 220.22,-48.16"/>
</g>
<!-- Warn -->
<g id="node11" class="node">
<title>Warn</title>
<ellipse fill="lightgrey" stroke="black" cx="257.57" cy="-90" rx="37.53" ry="18"/>
<text text-anchor="middle" x="257.57" y="-85.33" font-family="Times,serif" font-size="14.00">Warn</text>
</g>
<!-- Not new or Old&#45;&gt;Warn -->
<g id="edge11" class="edge">
<title>Not new or Old&#45;&gt;Warn</title>
<path fill="none" stroke="black" d="M335.14,-144.23C320.92,-134.48 302.89,-122.1 287.79,-111.74"/>
<polygon fill="black" stroke="black" points="289.83,-108.9 279.61,-106.12 285.87,-114.67 289.83,-108.9"/>
</g>
<!-- Replace -->
<g id="node12" class="node">
<title>Replace</title>
<ellipse fill="lightgrey" stroke="black" cx="363.57" cy="-90" rx="50.68" ry="18"/>
<text text-anchor="middle" x="363.57" y="-85.33" font-family="Times,serif" font-size="14.00">Replace</text>
</g>
<!-- Not new or Old&#45;&gt;Replace -->
<g id="edge12" class="edge">
<title>Not new or Old&#45;&gt;Replace</title>
<path fill="none" stroke="black" d="M360.56,-143.7C360.97,-136.41 361.47,-127.73 361.94,-119.54"/>
<polygon fill="black" stroke="black" points="365.43,-119.8 362.51,-109.62 358.44,-119.4 365.43,-119.8"/>
</g>
<!-- Warn&#45;&gt;Log Warning -->
<g id="edge13" class="edge">
<title>Warn&#45;&gt;Log Warning</title>
<path fill="none" stroke="black" d="M249.58,-72.05C245.99,-64.43 241.65,-55.23 237.6,-46.65"/>
<polygon fill="black" stroke="black" points="240.79,-45.2 233.36,-37.64 234.46,-48.18 240.79,-45.2"/>
</g>
<!-- Replace&#45;&gt;Copy New -->
<g id="edge14" class="edge">
<title>Replace&#45;&gt;Copy New</title>
<path fill="none" stroke="black" d="M386.83,-73.64C401.16,-64.17 419.79,-51.87 435.74,-41.34"/>
<polygon fill="black" stroke="black" points="437.58,-44.32 443.99,-35.89 433.72,-38.48 437.58,-44.32"/>
</g>
</g>
</svg>
